PathFileType	4	(X/Y/Z)	C:/Users/Rosti/Documents/GitHub/TechForParalysis/Code/Model/04122019 - Marker Volunteer01/Rosti Data/New Session 103.trc	
DataRate	CameraRate	NumFrames	NumMarkers	Units	OrigDataRate	OrigDataStartFrame	OrigNumFrames	
100.00	100.00	11	14	mm	100.00	543	620	
Frame#	Time	C7			PX			T8			IJ			SC			AC			AI			TS			AA			GH			LE			ME			US			RS			
		X1	Y1	Z1	X2	Y2	Z2	X3	Y3	Z3	X4	Y4	Z4	X5	Y5	Z5	X6	Y6	Z6	X7	Y7	Z7	X8	Y8	Z8	X9	Y9	Z9	X10	Y10	Z10	X11	Y11	Z11	X12	Y12	Z12	X13	Y13	Z13	X14	Y14	Z14	

543	5.420	698.46338	18.67693	1534.25891	462.78818	-18.25331	1293.96069	764.49084	14.20539	1319.24561	532.91095	-13.05185	1435.32263	536.81146	12.26856	1442.89807	596.20856	162.55023	1474.01086	730.42438	100.51972	1454.41345	761.90442	97.18793	1335.80725	663.12378	214.91071	1428.41504	621.97839	224.91139	1440.86084	540.75635	254.54060	1151.61426	513.05151	166.75113	1133.53564	426.61105	277.66882	894.45807	406.88135	342.21011	931.53540 
544	5.430	698.58325	18.62803	1534.26685	462.84924	-18.25083	1293.99280	764.58978	14.13456	1319.22546	532.99597	-13.05949	1435.36755	536.90509	12.24043	1442.92041	596.32220	162.52245	1474.03601	730.53015	100.47755	1454.40442	762.00323	97.14787	1335.79712	663.24255	214.86214	1428.42896	622.10913	224.88152	1440.88599	540.93237	254.50961	1151.61792	513.18823	166.82928	1133.54993	426.72232	277.69504	894.47345	407.05600	342.24158	931.54834 
545	5.440	698.69635	18.56778	1534.27783	462.91141	-18.24691	1294.01819	764.69189	14.05748	1319.20679	533.07813	-13.06839	1435.41846	537.01367	12.18962	1442.92395	596.43372	162.49875	1474.05811	730.63000	100.43314	1454.38928	762.13983	97.09322	1335.80103	663.36298	214.80836	1428.43835	622.25012	224.84654	1440.90662	541.10333	254.46301	1151.62170	513.31012	166.87828	1133.56116	426.83249	277.69681	894.48102	407.23141	342.26221	931.55396 
546	5.450	698.80066	18.50089	1534.28760	462.97736	-18.24792	1294.03650	764.79633	13.97593	1319.18945	533.15930	-13.07954	1435.47388	537.14386	12.12434	1442.90491	596.54364	162.47643	1474.07800	730.72729	100.38309	1454.36926	762.30408	97.02780	1335.81531	663.48834	214.75264	1428.44751	622.39423	224.80652	1440.92139	541.26233	254.41158	1151.63000	513.40308	166.90639	1133.57544	426.96146	277.70526	894.49896	407.40616	342.27426	931.55737 
547	5.460	698.90100	18.43584	1534.29553	463.04755	-18.25730	1294.05298	764.90216	13.89241	1319.17273	533.24066	-13.09373	1435.53223	537.28668	12.05841	1442.87573	596.65497	162.44800	1474.09814	730.82709	100.32680	1454.34851	762.47479	96.95749	1335.83264	663.61664	214.69510	1428.45569	622.53412	224.76030	1440.92957	541.40344	254.36702	1151.64270	513.46661	166.92482	1133.59509	427.11896	277.73779	894.53491	407.57797	342.28101	931.56226 
548	5.470	699.00525	18.37996	1534.30371	463.11957	-18.27311	1294.07349	765.00824	13.80974	1319.15625	533.32288	-13.11131	1435.59167	537.42145	12.00939	1442.85925	596.77087	162.40846	1474.12134	730.93329	100.26496	1454.33057	762.62659	96.88892	1335.84375	663.74292	214.63446	1428.46155	622.66797	224.71089	1440.93542	541.52496	254.33118	1151.65833	513.51270	166.94250	1133.61951	427.27780	277.76138	894.57843	407.74481	342.28375	931.57104 
549	5.480	699.11774	18.33329	1534.31409	463.18918	-18.29103	1294.09839	765.11346	13.73053	1319.13965	533.40570	-13.13240	1435.65100	537.53357	11.98254	1442.86060	596.89246	162.35826	1474.14795	731.04382	100.19914	1454.31616	762.74066	96.82809	1335.84155	663.86664	214.57399	1428.46667	622.79895	224.66469	1440.94604	541.63049	254.29851	1151.67822	513.56104	166.96173	1133.64539	427.41922	277.75507	894.61877	407.90695	342.28223	931.58496 
550	5.490	699.23560	18.28813	1534.32642	463.25363	-18.30781	1294.12451	765.21680	13.65657	1319.12280	533.48871	-13.15695	1435.70911	537.62335	11.96750	1442.87122	597.01849	162.30334	1474.17578	731.15271	100.13258	1454.30200	762.81024	96.77878	1335.82324	663.99139	214.51711	1428.47339	622.93280	224.62534	1440.96729	541.72803	254.26271	1151.70398	513.63129	166.97629	1133.66992	427.54959	277.72839	894.65533	408.06583	342.27600	931.60345 
551	5.500	699.35052	18.23326	1534.33704	463.31409	-18.32378	1294.14893	765.31726	13.58864	1319.10596	533.57129	-13.18475	1435.76514	537.70190	11.95151	1442.88318	597.14551	162.25220	1474.20020	731.25702	100.06955	1454.28564	762.84125	96.74072	1335.79089	664.11743	214.46468	1428.48425	623.07330	224.59061	1440.99963	541.82422	254.22180	1151.73486	513.73535	166.97510	1133.69312	427.67886	277.69620	894.68964	408.22189	342.26508	931.62451 
552	5.510	699.45288	18.15807	1534.34253	463.37454	-18.34041	1294.17126	765.41418	13.52681	1319.08972	533.65283	-13.21531	1435.81799	537.78033	11.92974	1442.89441	597.27185	162.20784	1474.21924	731.35864	100.01318	1454.26721	762.85114	96.70921	1335.75073	664.23907	214.41653	1428.49817	623.21710	224.55846	1441.03711	541.91998	254.18129	1151.76965	513.86786	166.94995	1133.71838	427.80630	277.66916	894.72229	408.37326	342.25027	931.64600 
553	5.520	699.53802	18.05644	1534.34277	463.43842	-18.35682	1294.19299	765.50702	13.47066	1319.07446	533.73303	-13.24777	1435.86621	537.86194	11.90595	1442.90942	597.39984	162.16664	1474.23376	731.46088	99.96265	1454.24902	762.86316	96.67743	1335.71155	664.35278	214.37137	1428.51123	623.35248	224.52774	1441.07031	542.01526	254.14799	1151.80701	514.00916	166.90285	1133.74878	427.92279	277.65369	894.75940	408.51514	342.23456	931.66687 
